<mxfile host="65bd71144e" modified="2023-03-01T05:31:40.578Z" agent="5.0 (Macintosh; Intel Mac OS X 13_2_1) AppleWebKit/537.36 (KHTML, like Gecko) Code/1.75.1 Chrome/102.0.5005.194 Electron/19.1.9 Safari/537.36" etag="9nTc62GciK42S6cckCI_" version="20.8.23" type="embed" pages="3">
    <diagram id="5LL1bgMLcIcRwywR8SrD" name="Index">
        <mxGraphModel dx="1005" dy="867" grid="1" gridSize="10" guides="1" tooltips="1" connect="1" arrows="1" fold="1" page="1" pageScale="1" pageWidth="850" pageHeight="850" math="0" shadow="0">
            <root>
                <mxCell id="0"/>
                <mxCell id="1" parent="0"/>
                <mxCell id="zY0MIBWVpZhsljXnVnaO-1" value="Component" style="rounded=1;whiteSpace=wrap;html=1;sketch=1;hachureGap=4;jiggle=2;curveFitting=1;fontFamily=Architects Daughter;fontSource=https%3A%2F%2Ffonts.googleapis.com%2Fcss%3Ffamily%3DArchitects%2BDaughter;fontSize=20;fillColor=#dae8fc;strokeColor=#6c8ebf;" vertex="1" parent="1">
                    <mxGeometry x="370" y="500" width="110" height="40" as="geometry"/>
                </mxCell>
                <mxCell id="zY0MIBWVpZhsljXnVnaO-2" value="Legend" style="text;html=1;strokeColor=none;fillColor=none;align=center;verticalAlign=middle;whiteSpace=wrap;rounded=0;fontSize=20;fontFamily=Architects Daughter;fontColor=#000000;" vertex="1" parent="1">
                    <mxGeometry x="395" y="460" width="60" height="30" as="geometry"/>
                </mxCell>
                <mxCell id="zY0MIBWVpZhsljXnVnaO-3" value="Note" style="rounded=1;whiteSpace=wrap;html=1;sketch=1;hachureGap=4;jiggle=2;curveFitting=1;fontFamily=Architects Daughter;fontSource=https%3A%2F%2Ffonts.googleapis.com%2Fcss%3Ffamily%3DArchitects%2BDaughter;fontSize=20;fillColor=#fff2cc;strokeColor=#d6b656;" vertex="1" parent="1">
                    <mxGeometry x="370" y="550" width="110" height="40" as="geometry"/>
                </mxCell>
                <mxCell id="zY0MIBWVpZhsljXnVnaO-4" value="&lt;h1&gt;Farm Game&lt;/h1&gt;&lt;p&gt;Here you'll find diagrams that indicate the architecture and planning for the game.&lt;br&gt;&lt;br&gt;Use the legend to understand and give context for how you might go about creating new diagrams.&lt;/p&gt;" style="text;html=1;strokeColor=none;fillColor=none;spacing=5;spacingTop=-20;whiteSpace=wrap;overflow=hidden;rounded=0;fontSize=20;fontFamily=Architects Daughter;fontColor=#000000;" vertex="1" parent="1">
                    <mxGeometry x="180" y="205" width="490" height="220" as="geometry"/>
                </mxCell>
            </root>
        </mxGraphModel>
    </diagram>
    <diagram id="st60KRThI-hdyKNG8Uz0" name="Planting">
        <mxGraphModel dx="1005" dy="867" grid="1" gridSize="10" guides="1" tooltips="1" connect="1" arrows="1" fold="1" page="1" pageScale="1" pageWidth="850" pageHeight="850" math="0" shadow="0">
            <root>
                <mxCell id="0"/>
                <mxCell id="1" parent="0"/>
                <mxCell id="36" value="" style="endArrow=none;dashed=1;html=1;dashPattern=1 3;strokeWidth=2;sketch=1;hachureGap=4;jiggle=2;curveFitting=1;fontFamily=Architects Daughter;fontSource=https%3A%2F%2Ffonts.googleapis.com%2Fcss%3Ffamily%3DArchitects%2BDaughter;fontSize=16;fontColor=#000000;fillColor=#f8cecc;strokeColor=#b85450;" edge="1" parent="1">
                    <mxGeometry width="50" height="50" relative="1" as="geometry">
                        <mxPoint x="420" y="750" as="sourcePoint"/>
                        <mxPoint x="420" y="230" as="targetPoint"/>
                    </mxGeometry>
                </mxCell>
                <mxCell id="18" value="" style="edgeStyle=none;sketch=1;hachureGap=4;jiggle=2;curveFitting=1;html=1;fontFamily=Architects Daughter;fontSource=https%3A%2F%2Ffonts.googleapis.com%2Fcss%3Ffamily%3DArchitects%2BDaughter;fontSize=16;fontColor=#000000;" edge="1" parent="1" source="3" target="17">
                    <mxGeometry relative="1" as="geometry"/>
                </mxCell>
                <mxCell id="3" value="Seed" style="rounded=1;whiteSpace=wrap;html=1;sketch=1;hachureGap=4;jiggle=2;curveFitting=1;fontFamily=Architects Daughter;fontSource=https%3A%2F%2Ffonts.googleapis.com%2Fcss%3Ffamily%3DArchitects%2BDaughter;fontSize=20;fillColor=#dae8fc;strokeColor=#6c8ebf;" parent="1" vertex="1">
                    <mxGeometry x="150" y="460" width="120" height="60" as="geometry"/>
                </mxCell>
                <mxCell id="25" value="" style="edgeStyle=none;sketch=1;hachureGap=4;jiggle=2;curveFitting=1;html=1;fontFamily=Architects Daughter;fontSource=https%3A%2F%2Ffonts.googleapis.com%2Fcss%3Ffamily%3DArchitects%2BDaughter;fontSize=16;fontColor=#000000;" edge="1" parent="1" source="4" target="24">
                    <mxGeometry relative="1" as="geometry"/>
                </mxCell>
                <mxCell id="4" value="PlantPlot" style="rounded=1;whiteSpace=wrap;html=1;sketch=1;hachureGap=4;jiggle=2;curveFitting=1;fontFamily=Architects Daughter;fontSource=https%3A%2F%2Ffonts.googleapis.com%2Fcss%3Ffamily%3DArchitects%2BDaughter;fontSize=20;fillColor=#dae8fc;strokeColor=#6c8ebf;" parent="1" vertex="1">
                    <mxGeometry x="580" y="460" width="120" height="60" as="geometry"/>
                </mxCell>
                <mxCell id="16" value="&lt;h1&gt;&lt;font color=&quot;#000000&quot;&gt;Planting&lt;/font&gt;&lt;/h1&gt;&lt;p&gt;&lt;font color=&quot;#000000&quot;&gt;Player will collect Seeds to be placed into PlantPlots&lt;/font&gt;&lt;/p&gt;" style="text;html=1;strokeColor=none;fillColor=none;spacing=5;spacingTop=-20;whiteSpace=wrap;overflow=hidden;rounded=0;fontSize=20;fontFamily=Architects Daughter;fontColor=#FF0000;" vertex="1" parent="1">
                    <mxGeometry x="10" y="10" width="330" height="140" as="geometry"/>
                </mxCell>
                <mxCell id="20" value="" style="edgeStyle=none;sketch=1;hachureGap=4;jiggle=2;curveFitting=1;html=1;fontFamily=Architects Daughter;fontSource=https%3A%2F%2Ffonts.googleapis.com%2Fcss%3Ffamily%3DArchitects%2BDaughter;fontSize=16;fontColor=#000000;" edge="1" parent="1" source="17" target="19">
                    <mxGeometry relative="1" as="geometry"/>
                </mxCell>
                <mxCell id="17" value="Tool" style="rounded=1;whiteSpace=wrap;html=1;sketch=1;hachureGap=4;jiggle=2;curveFitting=1;fontFamily=Architects Daughter;fontSource=https%3A%2F%2Ffonts.googleapis.com%2Fcss%3Ffamily%3DArchitects%2BDaughter;fontSize=20;" vertex="1" parent="1">
                    <mxGeometry x="177.5" y="550" width="60" height="35" as="geometry"/>
                </mxCell>
                <mxCell id="22" value="" style="edgeStyle=none;sketch=1;hachureGap=4;jiggle=2;curveFitting=1;html=1;fontFamily=Architects Daughter;fontSource=https%3A%2F%2Ffonts.googleapis.com%2Fcss%3Ffamily%3DArchitects%2BDaughter;fontSize=16;fontColor=#000000;" edge="1" parent="1" source="19" target="21">
                    <mxGeometry relative="1" as="geometry"/>
                </mxCell>
                <mxCell id="19" value="Activated()" style="rounded=1;whiteSpace=wrap;html=1;sketch=1;hachureGap=4;jiggle=2;curveFitting=1;fontFamily=Architects Daughter;fontSource=https%3A%2F%2Ffonts.googleapis.com%2Fcss%3Ffamily%3DArchitects%2BDaughter;fontSize=20;" vertex="1" parent="1">
                    <mxGeometry x="150" y="617.5" width="115" height="30" as="geometry"/>
                </mxCell>
                <mxCell id="21" value="RemoteEvent" style="rounded=1;whiteSpace=wrap;html=1;sketch=1;hachureGap=4;jiggle=2;curveFitting=1;fontFamily=Architects Daughter;fontSource=https%3A%2F%2Ffonts.googleapis.com%2Fcss%3Ffamily%3DArchitects%2BDaughter;fontSize=20;" vertex="1" parent="1">
                    <mxGeometry x="340" y="475" width="145" height="30" as="geometry"/>
                </mxCell>
                <mxCell id="23" value="" style="edgeStyle=none;sketch=1;hachureGap=4;jiggle=2;curveFitting=1;html=1;fontFamily=Architects Daughter;fontSource=https%3A%2F%2Ffonts.googleapis.com%2Fcss%3Ffamily%3DArchitects%2BDaughter;fontSize=16;fontColor=#000000;" edge="1" parent="1" source="21" target="4">
                    <mxGeometry relative="1" as="geometry">
                        <mxPoint x="445" y="600" as="sourcePoint"/>
                        <mxPoint x="490" y="600" as="targetPoint"/>
                    </mxGeometry>
                </mxCell>
                <mxCell id="24" value="Plant" style="rounded=1;whiteSpace=wrap;html=1;sketch=1;hachureGap=4;jiggle=2;curveFitting=1;fontFamily=Architects Daughter;fontSource=https%3A%2F%2Ffonts.googleapis.com%2Fcss%3Ffamily%3DArchitects%2BDaughter;fontSize=20;fillColor=#dae8fc;strokeColor=#6c8ebf;" vertex="1" parent="1">
                    <mxGeometry x="580" y="600" width="120" height="60" as="geometry"/>
                </mxCell>
                <mxCell id="33" style="edgeStyle=none;sketch=1;hachureGap=4;jiggle=2;curveFitting=1;html=1;exitX=0.5;exitY=1;exitDx=0;exitDy=0;fontFamily=Architects Daughter;fontSource=https%3A%2F%2Ffonts.googleapis.com%2Fcss%3Ffamily%3DArchitects%2BDaughter;fontSize=16;fontColor=#000000;" edge="1" parent="1" source="31" target="21">
                    <mxGeometry relative="1" as="geometry"/>
                </mxCell>
                <mxCell id="31" value="What kind of seed?" style="rounded=1;whiteSpace=wrap;html=1;sketch=1;hachureGap=4;jiggle=2;curveFitting=1;fontFamily=Architects Daughter;fontSource=https%3A%2F%2Ffonts.googleapis.com%2Fcss%3Ffamily%3DArchitects%2BDaughter;fontSize=20;fillColor=#fff2cc;strokeColor=#d6b656;" vertex="1" parent="1">
                    <mxGeometry x="178.75" y="360" width="117.5" height="60" as="geometry"/>
                </mxCell>
                <mxCell id="34" style="edgeStyle=none;sketch=1;hachureGap=4;jiggle=2;curveFitting=1;html=1;exitX=0.5;exitY=1;exitDx=0;exitDy=0;fontFamily=Architects Daughter;fontSource=https%3A%2F%2Ffonts.googleapis.com%2Fcss%3Ffamily%3DArchitects%2BDaughter;fontSize=16;fontColor=#000000;" edge="1" parent="1" source="32" target="21">
                    <mxGeometry relative="1" as="geometry"/>
                </mxCell>
                <mxCell id="32" value="Which PlantPlot?" style="rounded=1;whiteSpace=wrap;html=1;sketch=1;hachureGap=4;jiggle=2;curveFitting=1;fontFamily=Architects Daughter;fontSource=https%3A%2F%2Ffonts.googleapis.com%2Fcss%3Ffamily%3DArchitects%2BDaughter;fontSize=20;fillColor=#fff2cc;strokeColor=#d6b656;" vertex="1" parent="1">
                    <mxGeometry x="310" y="360" width="100" height="60" as="geometry"/>
                </mxCell>
                <mxCell id="38" value="Client" style="text;html=1;strokeColor=#6c8ebf;fillColor=#dae8fc;align=center;verticalAlign=middle;whiteSpace=wrap;rounded=0;fontSize=20;fontFamily=Architects Daughter;" vertex="1" parent="1">
                    <mxGeometry x="205" y="230" width="65" height="30" as="geometry"/>
                </mxCell>
                <mxCell id="39" value="Server" style="text;html=1;strokeColor=#82b366;fillColor=#d5e8d4;align=center;verticalAlign=middle;whiteSpace=wrap;rounded=0;fontSize=20;fontFamily=Architects Daughter;" vertex="1" parent="1">
                    <mxGeometry x="570" y="230" width="70" height="30" as="geometry"/>
                </mxCell>
            </root>
        </mxGraphModel>
    </diagram>
    <diagram id="T7y1cq-I421D0Dci_ju5" name="Seed">
        <mxGraphModel dx="1005" dy="867" grid="1" gridSize="10" guides="1" tooltips="1" connect="1" arrows="1" fold="1" page="1" pageScale="1" pageWidth="850" pageHeight="850" math="0" shadow="0">
            <root>
                <mxCell id="0"/>
                <mxCell id="1" parent="0"/>
                <mxCell id="drWn4yXEJiF0bwWJMUm0-6" value="&lt;h1&gt;&lt;font color=&quot;#000000&quot;&gt;Seed&lt;/font&gt;&lt;/h1&gt;&lt;p&gt;&lt;font color=&quot;#000000&quot;&gt;The architecture for the seed component&lt;/font&gt;&lt;/p&gt;" style="text;html=1;strokeColor=none;fillColor=none;spacing=5;spacingTop=-20;whiteSpace=wrap;overflow=hidden;rounded=0;fontSize=20;fontFamily=Architects Daughter;fontColor=#FF0000;" vertex="1" parent="1">
                    <mxGeometry x="20" y="20" width="330" height="140" as="geometry"/>
                </mxCell>
                <mxCell id="2-4nw458gLGBmuBFe4UR-3" value="" style="edgeStyle=none;sketch=1;hachureGap=4;jiggle=2;curveFitting=1;html=1;fontFamily=Architects Daughter;fontSource=https%3A%2F%2Ffonts.googleapis.com%2Fcss%3Ffamily%3DArchitects%2BDaughter;fontSize=16;fontColor=#000000;" edge="1" parent="1" source="2-4nw458gLGBmuBFe4UR-1" target="2-4nw458gLGBmuBFe4UR-2">
                    <mxGeometry relative="1" as="geometry"/>
                </mxCell>
                <mxCell id="2-4nw458gLGBmuBFe4UR-5" value="" style="edgeStyle=none;sketch=1;hachureGap=4;jiggle=2;curveFitting=1;html=1;fontFamily=Architects Daughter;fontSource=https%3A%2F%2Ffonts.googleapis.com%2Fcss%3Ffamily%3DArchitects%2BDaughter;fontSize=16;fontColor=#000000;" edge="1" parent="1" source="2-4nw458gLGBmuBFe4UR-1" target="2-4nw458gLGBmuBFe4UR-4">
                    <mxGeometry relative="1" as="geometry"/>
                </mxCell>
                <mxCell id="2-4nw458gLGBmuBFe4UR-1" value="Tool" style="rounded=1;whiteSpace=wrap;html=1;sketch=1;hachureGap=4;jiggle=2;curveFitting=1;fontFamily=Architects Daughter;fontSource=https%3A%2F%2Ffonts.googleapis.com%2Fcss%3Ffamily%3DArchitects%2BDaughter;fontSize=20;fontColor=#000000;" vertex="1" parent="1">
                    <mxGeometry x="383" y="420" width="120" height="60" as="geometry"/>
                </mxCell>
                <mxCell id="2-4nw458gLGBmuBFe4UR-2" value="Handle" style="rounded=1;whiteSpace=wrap;html=1;sketch=1;hachureGap=4;jiggle=2;curveFitting=1;fontFamily=Architects Daughter;fontSource=https%3A%2F%2Ffonts.googleapis.com%2Fcss%3Ffamily%3DArchitects%2BDaughter;fontSize=20;fontColor=#000000;" vertex="1" parent="1">
                    <mxGeometry x="213" y="420" width="120" height="60" as="geometry"/>
                </mxCell>
                <mxCell id="2-4nw458gLGBmuBFe4UR-4" value="Activated()" style="rounded=1;whiteSpace=wrap;html=1;sketch=1;hachureGap=4;jiggle=2;curveFitting=1;fontFamily=Architects Daughter;fontSource=https%3A%2F%2Ffonts.googleapis.com%2Fcss%3Ffamily%3DArchitects%2BDaughter;fontSize=20;fontColor=#000000;" vertex="1" parent="1">
                    <mxGeometry x="553" y="420" width="120" height="60" as="geometry"/>
                </mxCell>
                <mxCell id="bZhxeeqeOID28MEYnZhv-2" style="edgeStyle=none;sketch=1;hachureGap=4;jiggle=2;curveFitting=1;html=1;fontFamily=Architects Daughter;fontSource=https%3A%2F%2Ffonts.googleapis.com%2Fcss%3Ffamily%3DArchitects%2BDaughter;fontSize=16;fontColor=#000000;" edge="1" parent="1" source="bZhxeeqeOID28MEYnZhv-1" target="2-4nw458gLGBmuBFe4UR-1">
                    <mxGeometry relative="1" as="geometry"/>
                </mxCell>
                <mxCell id="bZhxeeqeOID28MEYnZhv-1" value="Seed" style="rounded=1;whiteSpace=wrap;html=1;sketch=1;hachureGap=4;jiggle=2;curveFitting=1;fontFamily=Architects Daughter;fontSource=https%3A%2F%2Ffonts.googleapis.com%2Fcss%3Ffamily%3DArchitects%2BDaughter;fontSize=20;fillColor=#dae8fc;strokeColor=#6c8ebf;" vertex="1" parent="1">
                    <mxGeometry x="383" y="295" width="120" height="60" as="geometry"/>
                </mxCell>
                <mxCell id="TmGA234_xdmw_GBCc_dj-7" style="edgeStyle=none;sketch=1;hachureGap=4;jiggle=2;curveFitting=1;html=1;fontFamily=Architects Daughter;fontSource=https%3A%2F%2Ffonts.googleapis.com%2Fcss%3Ffamily%3DArchitects%2BDaughter;fontSize=16;fontColor=#000000;" edge="1" parent="1" source="TmGA234_xdmw_GBCc_dj-1" target="2-4nw458gLGBmuBFe4UR-4">
                    <mxGeometry relative="1" as="geometry"/>
                </mxCell>
                <mxCell id="TmGA234_xdmw_GBCc_dj-1" value="Plants the seed by sending a signal to the server" style="rounded=1;whiteSpace=wrap;html=1;sketch=1;hachureGap=4;jiggle=2;curveFitting=1;fontFamily=Architects Daughter;fontSource=https%3A%2F%2Ffonts.googleapis.com%2Fcss%3Ffamily%3DArchitects%2BDaughter;fontSize=20;fillColor=#fff2cc;strokeColor=#d6b656;" vertex="1" parent="1">
                    <mxGeometry x="541.75" y="515" width="142.5" height="100" as="geometry"/>
                </mxCell>
                <mxCell id="TmGA234_xdmw_GBCc_dj-13" style="edgeStyle=none;sketch=1;hachureGap=4;jiggle=2;curveFitting=1;html=1;fontFamily=Architects Daughter;fontSource=https%3A%2F%2Ffonts.googleapis.com%2Fcss%3Ffamily%3DArchitects%2BDaughter;fontSize=16;fontColor=#000000;" edge="1" parent="1" source="TmGA234_xdmw_GBCc_dj-3" target="2-4nw458gLGBmuBFe4UR-4">
                    <mxGeometry relative="1" as="geometry"/>
                </mxCell>
                <mxCell id="TmGA234_xdmw_GBCc_dj-14" style="edgeStyle=none;sketch=1;hachureGap=4;jiggle=2;curveFitting=1;html=1;fontFamily=Architects Daughter;fontSource=https%3A%2F%2Ffonts.googleapis.com%2Fcss%3Ffamily%3DArchitects%2BDaughter;fontSize=16;fontColor=#000000;" edge="1" parent="1" source="TmGA234_xdmw_GBCc_dj-3" target="2-4nw458gLGBmuBFe4UR-1">
                    <mxGeometry relative="1" as="geometry"/>
                </mxCell>
                <mxCell id="TmGA234_xdmw_GBCc_dj-3" value="The &lt;font color=&quot;#ff0000&quot;&gt;Name&lt;/font&gt; of the tool is currently how the server finds out about the kind of seed on activation of the tool" style="rounded=1;whiteSpace=wrap;html=1;sketch=1;hachureGap=4;jiggle=2;curveFitting=1;fontFamily=Architects Daughter;fontSource=https%3A%2F%2Ffonts.googleapis.com%2Fcss%3Ffamily%3DArchitects%2BDaughter;fontSize=20;fillColor=#fff2cc;strokeColor=#d6b656;" vertex="1" parent="1">
                    <mxGeometry x="553" y="245" width="240" height="120" as="geometry"/>
                </mxCell>
                <mxCell id="TmGA234_xdmw_GBCc_dj-8" style="edgeStyle=none;sketch=1;hachureGap=4;jiggle=2;curveFitting=1;html=1;fontFamily=Architects Daughter;fontSource=https%3A%2F%2Ffonts.googleapis.com%2Fcss%3Ffamily%3DArchitects%2BDaughter;fontSize=16;fontColor=#000000;" edge="1" parent="1" source="TmGA234_xdmw_GBCc_dj-5" target="2-4nw458gLGBmuBFe4UR-1">
                    <mxGeometry relative="1" as="geometry"/>
                </mxCell>
                <mxCell id="TmGA234_xdmw_GBCc_dj-5" value="Equippable by the player" style="rounded=1;whiteSpace=wrap;html=1;sketch=1;hachureGap=4;jiggle=2;curveFitting=1;fontFamily=Architects Daughter;fontSource=https%3A%2F%2Ffonts.googleapis.com%2Fcss%3Ffamily%3DArchitects%2BDaughter;fontSize=20;fillColor=#fff2cc;strokeColor=#d6b656;" vertex="1" parent="1">
                    <mxGeometry x="376" y="525" width="135" height="60" as="geometry"/>
                </mxCell>
                <mxCell id="TmGA234_xdmw_GBCc_dj-11" style="edgeStyle=none;sketch=1;hachureGap=4;jiggle=2;curveFitting=1;html=1;fontFamily=Architects Daughter;fontSource=https%3A%2F%2Ffonts.googleapis.com%2Fcss%3Ffamily%3DArchitects%2BDaughter;fontSize=16;fontColor=#000000;" edge="1" parent="1" source="TmGA234_xdmw_GBCc_dj-10" target="2-4nw458gLGBmuBFe4UR-2">
                    <mxGeometry relative="1" as="geometry"/>
                </mxCell>
                <mxCell id="TmGA234_xdmw_GBCc_dj-10" value="The Handle is a BasePart that can be decorated to look like the plant it will grow into" style="rounded=1;whiteSpace=wrap;html=1;sketch=1;hachureGap=4;jiggle=2;curveFitting=1;fontFamily=Architects Daughter;fontSource=https%3A%2F%2Ffonts.googleapis.com%2Fcss%3Ffamily%3DArchitects%2BDaughter;fontSize=20;fillColor=#fff2cc;strokeColor=#d6b656;" vertex="1" parent="1">
                    <mxGeometry x="58" y="235" width="230" height="120" as="geometry"/>
                </mxCell>
            </root>
        </mxGraphModel>
    </diagram>
</mxfile>